#!OML:ASF E:/inclinewalkrobotboard/Project1/Captureday1/Session1/subject1.ASF
:FULLY-SPECIFIED
:DEGREES
363
root 0 0 0 -1.6845019596869037 -0.025940623134769858 1.2612425248499934
lowerback 9.258831492765841 -1.288621562458987 -2.6486010089435936
upperback 0.7540826532360373 -2.0512675310018276 1.2357146936849164
thorax -4.308304764322105 -0.9405266736920066 3.0772033948053528
lowerneck -16.560296024134498 -2.0795184749122875 -2.2832381862950815
upperneck 14.597278181961139 -2.269030786228813 0.28690066264806413
head 7.0553569221930115 -1.251418892627414 0.21055569496681242
rclavicle 2.9082564463145147E-15 -8.716970232527171E-16
rhumerus -33.45753166653965 -28.940243762859737 -82.24504567193762
rradius 16.26206164017605
rwrist 17.126885017889865
rhand -20.013209670391316 26.275651398348046
rfingers 7.125019999999985
rthumb 6.358292862268846 -3.846748792629384
lclavicle 3.0917941785447947E-15 -1.0383114569913234E-15
lhumerus -31.76543676288979 -3.1091176591019996 79.56441681202043
lradius 34.656893613786224
lwrist 12.102287957416657
lhand -29.275979197344295 27.333724676206728
lfingers 7.125020000000003
lthumb -2.68640756047947 57.45631551523667
rfemur -22.55019858827111 4.040813457399254 22.912033154667434
rtibia 39.76871258281299
rfoot -6.800262070405829 -8.618425480867835
rtoes 2.1457020347519786
lfemur 8.080418136946903 -6.62957921856215 -24.69709904621561
ltibia 25.33820499855837
lfoot -16.045897013364925 0.4502225218453546
ltoes -5.879248876062505
364
root 0 0 0 -1.6861929624874128 -0.11171018487315942 1.0291816259319169
lowerback 9.039121668897666 -1.3267590517991752 -2.4108143399929265
upperback 0.4543421285791285 -2.0558032578807 1.3436724867774938
thorax -4.5113231943317835 -0.9499373356077594 3.0525134488505765
lowerneck -17.216083455550024 -2.0178140753465423 -2.191647569404473
upperneck 15.151358056154217 -2.1564227887251444 -0.1118236264450212
head 7.360649928135519 -1.2111476798840806 0.06086456595261139
rclavicle 2.6164713029983328E-15 -5.314199675157893E-16
rhumerus -33.085639703710015 -29.602209754764907 -81.63356489802122
rradius 16.648198812801283
rwrist 16.96147223152582
rhand -20.103342015868293 26.105657016248415
rfingers 7.125019999999986
rthumb 6.271584379985764 -4.019023856017569
lclavicle 2.225055196011323E-15 -1.097245258315344E-15
lhumerus -31.705646166874377 -3.74296065646095 79.77807441045259
lradius 35.61171718388185
lwrist 12.741194136953524
lhand -29.25660034336618 27.23651255028018
lfingers 7.125020000000004
lthumb -2.655329894348535 57.34364736954528
rfemur -21.872089871537803 4.2596194667176475 23.35686028463285
rtibia 38.95380565972135
rfoot -7.398506440044949 -8.626793763148184
rtoes 1.9968266218223107
lfemur 7.9026100937617025 -6.496795460120374 -24.575743423976576
ltibia 25.76706128601427
lfoot -15.778248053486307 0.25404302162163495
ltoes -5.994942721925284
365
root 0 0 0 -1.665491200911541 -0.18850454446188136 0.7344383616299566
lowerback 8.905044124826217 -1.3655131542201957 -2.146055584565132
upperback 0.23237085970382404 -2.057156380172864 1.4538783918953966
thorax -4.67897762245272 -0.959298994835283 3.012268359539409
lowerneck -17.691000289078026 -1.9531672924255021 -2.0533987539775604
upperneck 15.624347571449627 -2.0455629935937294 -0.5014431212076429
head 7.6090527695747445 -1.170283804355917 -0.09019581152197798
rclavicle 2.3118724831463064E-15 -2.3714868707095044E-16
rhumerus -33.11848890228054 -30.02463287335248 -81.4117612360109
rradius 16.571837573718447
rwrist 16.732304854447708
rhand -20.116617595520747 25.949738946456783
rfingers 7.125019999999986
rthumb 6.2591387025991985 -4.17293756837239
lclavicle 1.7366728333095892E-15 -1.0281798949046426E-15
lhumerus -31.65734679145212 -3.9549772444811166 79.98985507717383
lradius 35.81678527098859
lwrist 12.844356000526517
lhand -29.19696833175057 27.15706443682396
lfingers 7.125020000000005
lthumb -2.5902261605260293 57.251365690378265
rfemur -21.170401730172028 4.405103832264498 23.674194061926755
rtibia 38.37902985851284
rfoot -7.776954224401633 -8.556628656825362
rtoes 1.9584696602953373
lfemur 7.502597127386188 -6.323090717741907 -24.40217710855341
ltibia 26.324041925923098
lfoot -15.350628036442316 -0.008961731787036964
ltoes -5.997571187068374
366
root 0 0 0 -1.6188840507560656 -0.2178709153969165 0.45088161663697557
lowerback 8.995973718081418 -1.3974311215727306 -1.925047920157178
upperback 0.14436894690961288 -2.056627297574712 1.5391957357323354
thorax -4.828564702003896 -0.9678161992929186 2.966865425124131
lowerneck -17.916014894539263 -1.9066115487025108 -1.8870398791758447
upperneck 15.905989874992699 -1.9677346151621193 -0.8301410722233811
head 7.754728629659431 -1.1424481878349981 -0.22386190778141696
rclavicle 2.091252761333857E-15 -1.493797992837574E-17
rhumerus -33.29799094717413 -30.265285953072432 -81.38774039449211
rradius 16.344256588550913
rwrist 16.5439166056112
rhand -20.096892426514064 25.826233008497717
rfingers 7.125019999999986
rthumb 6.2785581790084635 -4.293488442846275
lclavicle 1.5428947703192343E-15 -9.075917015569003E-16
lhumerus -31.58322654745144 -3.9529608547562516 80.22448503704418
lradius 35.614695443677086
lwrist 12.65454139397088
lhand -29.115166576013237 27.068561270388347
lfingers 7.125020000000006
lthumb -2.5067735760009846 57.15044741003585
rfemur -20.47378307210722 4.499991934503053 23.929736411859835
rtibia 38.06278256280089
rfoot -7.991347167587386 -8.435128541494144
rtoes 2.0303700237741134
lfemur 6.83443265806354 -6.049396146210945 -24.154787510938576
ltibia 27.11573731535713
lfoot -14.699158391807837 -0.3969780839479946
ltoes -5.935751945370054
